<mxfile host="app.diagrams.net" modified="2023-04-14T19:26:06.351Z" agent="Mozilla/5.0 (Windows NT 10.0; Win64; x64; rv:109.0) Gecko/20100101 Firefox/111.0" etag="mvsPu8KPineYS-8Q2rxz" version="21.1.7">
  <diagram name="Page-1" id="bQRCrKYbqawFxgCQvxAe">
    <mxGraphModel dx="1314" dy="1263" grid="1" gridSize="10" guides="1" tooltips="1" connect="1" arrows="1" fold="1" page="1" pageScale="1" pageWidth="1100" pageHeight="850" math="0" shadow="0">
      <root>
        <mxCell id="0" />
        <mxCell id="1" parent="0" />
        <mxCell id="lg7ng6ACEGyM2Rm_as7d-6" value="Module server" style="swimlane;childLayout=stackLayout;resizeParent=1;resizeParentMax=0;startSize=20;html=1;fontSize=14;" vertex="1" parent="1">
          <mxGeometry x="12.000000000000455" y="418" width="620" height="290" as="geometry" />
        </mxCell>
        <mxCell id="lg7ng6ACEGyM2Rm_as7d-7" value="Classes" style="swimlane;startSize=20;html=1;" vertex="1" parent="lg7ng6ACEGyM2Rm_as7d-6">
          <mxGeometry y="20" width="620" height="270" as="geometry" />
        </mxCell>
        <mxCell id="lg7ng6ACEGyM2Rm_as7d-10" value="Server" style="swimlane;fontStyle=0;childLayout=stackLayout;horizontal=1;startSize=26;fillColor=none;horizontalStack=0;resizeParent=1;resizeParentMax=0;resizeLast=0;collapsible=1;marginBottom=0;html=1;fontSize=14;" vertex="1" parent="lg7ng6ACEGyM2Rm_as7d-7">
          <mxGeometry x="401" y="36" width="200" height="104" as="geometry" />
        </mxCell>
        <mxCell id="lg7ng6ACEGyM2Rm_as7d-11" value="+DB: Store" style="text;strokeColor=none;fillColor=none;align=left;verticalAlign=top;spacingLeft=4;spacingRight=4;overflow=hidden;rotatable=0;points=[[0,0.5],[1,0.5]];portConstraint=eastwest;whiteSpace=wrap;html=1;fontSize=15;" vertex="1" parent="lg7ng6ACEGyM2Rm_as7d-10">
          <mxGeometry y="26" width="200" height="26" as="geometry" />
        </mxCell>
        <mxCell id="lg7ng6ACEGyM2Rm_as7d-12" value="+users: UserManager" style="text;strokeColor=none;fillColor=none;align=left;verticalAlign=top;spacingLeft=4;spacingRight=4;overflow=hidden;rotatable=0;points=[[0,0.5],[1,0.5]];portConstraint=eastwest;whiteSpace=wrap;html=1;fontSize=15;" vertex="1" parent="lg7ng6ACEGyM2Rm_as7d-10">
          <mxGeometry y="52" width="200" height="26" as="geometry" />
        </mxCell>
        <mxCell id="lg7ng6ACEGyM2Rm_as7d-13" value="+pages: PageManager" style="text;strokeColor=none;fillColor=none;align=left;verticalAlign=top;spacingLeft=4;spacingRight=4;overflow=hidden;rotatable=0;points=[[0,0.5],[1,0.5]];portConstraint=eastwest;whiteSpace=wrap;html=1;fontSize=15;" vertex="1" parent="lg7ng6ACEGyM2Rm_as7d-10">
          <mxGeometry y="78" width="200" height="26" as="geometry" />
        </mxCell>
        <mxCell id="lg7ng6ACEGyM2Rm_as7d-48" style="edgeStyle=orthogonalEdgeStyle;rounded=0;orthogonalLoop=1;jettySize=auto;html=1;exitX=1;exitY=0.25;exitDx=0;exitDy=0;entryX=0;entryY=0.5;entryDx=0;entryDy=0;endArrow=diamondThin;endFill=1;endSize=12;" edge="1" parent="lg7ng6ACEGyM2Rm_as7d-7" source="lg7ng6ACEGyM2Rm_as7d-18" target="lg7ng6ACEGyM2Rm_as7d-12">
          <mxGeometry relative="1" as="geometry" />
        </mxCell>
        <mxCell id="lg7ng6ACEGyM2Rm_as7d-18" value="UserManager" style="swimlane;fontStyle=0;childLayout=stackLayout;horizontal=1;startSize=26;fillColor=none;horizontalStack=0;resizeParent=1;resizeParentMax=0;resizeLast=0;collapsible=1;marginBottom=0;html=1;fontSize=14;" vertex="1" parent="lg7ng6ACEGyM2Rm_as7d-7">
          <mxGeometry x="122" y="36" width="210" height="78" as="geometry" />
        </mxCell>
        <mxCell id="lg7ng6ACEGyM2Rm_as7d-20" value="+members: [int64]UCInterface" style="text;strokeColor=none;fillColor=none;align=left;verticalAlign=top;spacingLeft=4;spacingRight=4;overflow=hidden;rotatable=0;points=[[0,0.5],[1,0.5]];portConstraint=eastwest;whiteSpace=wrap;html=1;fontSize=14;" vertex="1" parent="lg7ng6ACEGyM2Rm_as7d-18">
          <mxGeometry y="26" width="210" height="26" as="geometry" />
        </mxCell>
        <mxCell id="lg7ng6ACEGyM2Rm_as7d-21" value="+guests: map[int64]UCInterface" style="text;strokeColor=none;fillColor=none;align=left;verticalAlign=top;spacingLeft=4;spacingRight=4;overflow=hidden;rotatable=0;points=[[0,0.5],[1,0.5]];portConstraint=eastwest;whiteSpace=wrap;html=1;fontSize=14;" vertex="1" parent="lg7ng6ACEGyM2Rm_as7d-18">
          <mxGeometry y="52" width="210" height="26" as="geometry" />
        </mxCell>
        <mxCell id="lg7ng6ACEGyM2Rm_as7d-61" style="edgeStyle=orthogonalEdgeStyle;rounded=0;orthogonalLoop=1;jettySize=auto;html=1;exitX=0;exitY=0.5;exitDx=0;exitDy=0;entryX=0;entryY=0.5;entryDx=0;entryDy=0;endArrow=diamondThin;endFill=0;endSize=12;" edge="1" parent="lg7ng6ACEGyM2Rm_as7d-7" source="lg7ng6ACEGyM2Rm_as7d-24" target="lg7ng6ACEGyM2Rm_as7d-20">
          <mxGeometry relative="1" as="geometry" />
        </mxCell>
        <mxCell id="lg7ng6ACEGyM2Rm_as7d-24" value="UCInterface" style="swimlane;fontStyle=0;childLayout=stackLayout;horizontal=1;startSize=26;fillColor=none;horizontalStack=0;resizeParent=1;resizeParentMax=0;resizeLast=0;collapsible=1;marginBottom=0;html=1;fontSize=14;" vertex="1" parent="lg7ng6ACEGyM2Rm_as7d-7">
          <mxGeometry x="43" y="130" width="190" height="30" as="geometry" />
        </mxCell>
        <mxCell id="lg7ng6ACEGyM2Rm_as7d-63" style="edgeStyle=orthogonalEdgeStyle;rounded=0;orthogonalLoop=1;jettySize=auto;html=1;exitX=1;exitY=0.25;exitDx=0;exitDy=0;entryX=0;entryY=0.5;entryDx=0;entryDy=0;endArrow=diamondThin;endFill=0;endSize=12;" edge="1" parent="lg7ng6ACEGyM2Rm_as7d-7" source="lg7ng6ACEGyM2Rm_as7d-22" target="lg7ng6ACEGyM2Rm_as7d-15">
          <mxGeometry relative="1" as="geometry" />
        </mxCell>
        <mxCell id="lg7ng6ACEGyM2Rm_as7d-22" value="Page" style="swimlane;fontStyle=0;childLayout=stackLayout;horizontal=1;startSize=26;fillColor=none;horizontalStack=0;resizeParent=1;resizeParentMax=0;resizeLast=0;collapsible=1;marginBottom=0;html=1;fontSize=14;" vertex="1" parent="lg7ng6ACEGyM2Rm_as7d-7">
          <mxGeometry x="48.999999999999545" y="174" width="240" height="78" as="geometry" />
        </mxCell>
        <mxCell id="lg7ng6ACEGyM2Rm_as7d-59" value="+members: map[int64]UCInterface" style="text;strokeColor=none;fillColor=none;align=left;verticalAlign=top;spacingLeft=4;spacingRight=4;overflow=hidden;rotatable=0;points=[[0,0.5],[1,0.5]];portConstraint=eastwest;whiteSpace=wrap;html=1;fontSize=14;" vertex="1" parent="lg7ng6ACEGyM2Rm_as7d-22">
          <mxGeometry y="26" width="240" height="26" as="geometry" />
        </mxCell>
        <mxCell id="lg7ng6ACEGyM2Rm_as7d-60" value="+guests: map[int64]UCInterface" style="text;strokeColor=none;fillColor=none;align=left;verticalAlign=top;spacingLeft=4;spacingRight=4;overflow=hidden;rotatable=0;points=[[0,0.5],[1,0.5]];portConstraint=eastwest;whiteSpace=wrap;html=1;fontSize=14;" vertex="1" parent="lg7ng6ACEGyM2Rm_as7d-22">
          <mxGeometry y="52" width="240" height="26" as="geometry" />
        </mxCell>
        <mxCell id="lg7ng6ACEGyM2Rm_as7d-14" value="PageManager" style="swimlane;fontStyle=0;childLayout=stackLayout;horizontal=1;startSize=26;fillColor=none;horizontalStack=0;resizeParent=1;resizeParentMax=0;resizeLast=0;collapsible=1;marginBottom=0;html=1;fontSize=14;" vertex="1" parent="lg7ng6ACEGyM2Rm_as7d-7">
          <mxGeometry x="344" y="183" width="180" height="52" as="geometry" />
        </mxCell>
        <mxCell id="lg7ng6ACEGyM2Rm_as7d-15" value="+Pages: map[int64]Page" style="text;strokeColor=none;fillColor=none;align=left;verticalAlign=top;spacingLeft=4;spacingRight=4;overflow=hidden;rotatable=0;points=[[0,0.5],[1,0.5]];portConstraint=eastwest;whiteSpace=wrap;html=1;fontSize=14;" vertex="1" parent="lg7ng6ACEGyM2Rm_as7d-14">
          <mxGeometry y="26" width="180" height="26" as="geometry" />
        </mxCell>
        <mxCell id="lg7ng6ACEGyM2Rm_as7d-49" style="edgeStyle=orthogonalEdgeStyle;rounded=0;orthogonalLoop=1;jettySize=auto;html=1;exitX=1;exitY=0.25;exitDx=0;exitDy=0;entryX=0;entryY=0.5;entryDx=0;entryDy=0;endArrow=diamondThin;endFill=1;endSize=12;" edge="1" parent="lg7ng6ACEGyM2Rm_as7d-7" source="lg7ng6ACEGyM2Rm_as7d-14" target="lg7ng6ACEGyM2Rm_as7d-13">
          <mxGeometry relative="1" as="geometry" />
        </mxCell>
        <mxCell id="lg7ng6ACEGyM2Rm_as7d-64" style="edgeStyle=orthogonalEdgeStyle;rounded=0;orthogonalLoop=1;jettySize=auto;html=1;exitX=0;exitY=0.5;exitDx=0;exitDy=0;entryX=0;entryY=0.5;entryDx=0;entryDy=0;endArrow=diamondThin;endFill=0;endSize=12;" edge="1" parent="lg7ng6ACEGyM2Rm_as7d-7" source="lg7ng6ACEGyM2Rm_as7d-24" target="lg7ng6ACEGyM2Rm_as7d-21">
          <mxGeometry relative="1" as="geometry">
            <mxPoint x="69" y="155" as="sourcePoint" />
            <mxPoint x="171" y="85" as="targetPoint" />
          </mxGeometry>
        </mxCell>
        <mxCell id="lg7ng6ACEGyM2Rm_as7d-65" style="edgeStyle=orthogonalEdgeStyle;rounded=0;orthogonalLoop=1;jettySize=auto;html=1;exitX=0;exitY=0.5;exitDx=0;exitDy=0;entryX=0;entryY=0.5;entryDx=0;entryDy=0;endArrow=diamondThin;endFill=0;endSize=12;" edge="1" parent="lg7ng6ACEGyM2Rm_as7d-7" source="lg7ng6ACEGyM2Rm_as7d-24" target="lg7ng6ACEGyM2Rm_as7d-59">
          <mxGeometry relative="1" as="geometry">
            <mxPoint x="69" y="155" as="sourcePoint" />
            <mxPoint x="171" y="111" as="targetPoint" />
          </mxGeometry>
        </mxCell>
        <mxCell id="lg7ng6ACEGyM2Rm_as7d-66" style="edgeStyle=orthogonalEdgeStyle;rounded=0;orthogonalLoop=1;jettySize=auto;html=1;exitX=0;exitY=0.5;exitDx=0;exitDy=0;entryX=0;entryY=0.5;entryDx=0;entryDy=0;endArrow=diamondThin;endFill=0;endSize=12;" edge="1" parent="lg7ng6ACEGyM2Rm_as7d-7" source="lg7ng6ACEGyM2Rm_as7d-24" target="lg7ng6ACEGyM2Rm_as7d-60">
          <mxGeometry relative="1" as="geometry">
            <mxPoint x="79" y="165" as="sourcePoint" />
            <mxPoint x="181" y="121" as="targetPoint" />
          </mxGeometry>
        </mxCell>
        <mxCell id="lg7ng6ACEGyM2Rm_as7d-81" value="Utility&lt;br&gt;Functions" style="edgeStyle=orthogonalEdgeStyle;rounded=0;orthogonalLoop=1;jettySize=auto;html=1;exitX=0.5;exitY=0;exitDx=0;exitDy=0;entryX=1;entryY=0.5;entryDx=0;entryDy=0;dashed=1;" edge="1" parent="1" source="lg7ng6ACEGyM2Rm_as7d-25" target="lg7ng6ACEGyM2Rm_as7d-77">
          <mxGeometry relative="1" as="geometry" />
        </mxCell>
        <mxCell id="lg7ng6ACEGyM2Rm_as7d-25" value="Module database" style="swimlane;childLayout=stackLayout;resizeParent=1;resizeParentMax=0;startSize=20;html=1;fontSize=14;" vertex="1" parent="1">
          <mxGeometry x="710.0000000000005" y="471" width="330" height="150" as="geometry" />
        </mxCell>
        <mxCell id="lg7ng6ACEGyM2Rm_as7d-26" value="Classes" style="swimlane;startSize=20;html=1;" vertex="1" parent="lg7ng6ACEGyM2Rm_as7d-25">
          <mxGeometry y="20" width="330" height="130" as="geometry" />
        </mxCell>
        <mxCell id="lg7ng6ACEGyM2Rm_as7d-27" value="Store" style="swimlane;fontStyle=0;childLayout=stackLayout;horizontal=1;startSize=26;fillColor=none;horizontalStack=0;resizeParent=1;resizeParentMax=0;resizeLast=0;collapsible=1;marginBottom=0;html=1;fontSize=14;" vertex="1" parent="lg7ng6ACEGyM2Rm_as7d-26">
          <mxGeometry x="9.999999999999545" y="33.5" width="140" height="78" as="geometry" />
        </mxCell>
        <mxCell id="lg7ng6ACEGyM2Rm_as7d-28" value="+DB: *sql.DB" style="text;strokeColor=none;fillColor=none;align=left;verticalAlign=top;spacingLeft=4;spacingRight=4;overflow=hidden;rotatable=0;points=[[0,0.5],[1,0.5]];portConstraint=eastwest;whiteSpace=wrap;html=1;fontSize=15;" vertex="1" parent="lg7ng6ACEGyM2Rm_as7d-27">
          <mxGeometry y="26" width="140" height="26" as="geometry" />
        </mxCell>
        <mxCell id="lg7ng6ACEGyM2Rm_as7d-29" value="+Queries: *Queries" style="text;strokeColor=none;fillColor=none;align=left;verticalAlign=top;spacingLeft=4;spacingRight=4;overflow=hidden;rotatable=0;points=[[0,0.5],[1,0.5]];portConstraint=eastwest;whiteSpace=wrap;html=1;fontSize=15;" vertex="1" parent="lg7ng6ACEGyM2Rm_as7d-27">
          <mxGeometry y="52" width="140" height="26" as="geometry" />
        </mxCell>
        <mxCell id="lg7ng6ACEGyM2Rm_as7d-38" value="Module config" style="swimlane;childLayout=stackLayout;resizeParent=1;resizeParentMax=0;startSize=20;html=1;fontSize=14;" vertex="1" parent="1">
          <mxGeometry x="670.0000000000005" y="670" width="410" height="170" as="geometry" />
        </mxCell>
        <mxCell id="lg7ng6ACEGyM2Rm_as7d-39" value="Classes" style="swimlane;startSize=20;html=1;" vertex="1" parent="lg7ng6ACEGyM2Rm_as7d-38">
          <mxGeometry y="20" width="410" height="150" as="geometry" />
        </mxCell>
        <mxCell id="lg7ng6ACEGyM2Rm_as7d-46" style="edgeStyle=orthogonalEdgeStyle;rounded=0;orthogonalLoop=1;jettySize=auto;html=1;exitX=0;exitY=0.5;exitDx=0;exitDy=0;endArrow=diamondThin;endFill=1;endSize=10;" edge="1" parent="lg7ng6ACEGyM2Rm_as7d-39" source="lg7ng6ACEGyM2Rm_as7d-44" target="lg7ng6ACEGyM2Rm_as7d-41">
          <mxGeometry relative="1" as="geometry" />
        </mxCell>
        <mxCell id="lg7ng6ACEGyM2Rm_as7d-44" value="DbConfig" style="swimlane;fontStyle=0;childLayout=stackLayout;horizontal=1;startSize=26;fillColor=none;horizontalStack=0;resizeParent=1;resizeParentMax=0;resizeLast=0;collapsible=1;marginBottom=0;html=1;fontSize=14;" vertex="1" parent="lg7ng6ACEGyM2Rm_as7d-39">
          <mxGeometry x="260" y="76" width="130" height="30" as="geometry" />
        </mxCell>
        <mxCell id="lg7ng6ACEGyM2Rm_as7d-47" style="edgeStyle=orthogonalEdgeStyle;rounded=0;orthogonalLoop=1;jettySize=auto;html=1;exitX=0;exitY=0.5;exitDx=0;exitDy=0;entryX=0.998;entryY=0.593;entryDx=0;entryDy=0;entryPerimeter=0;endArrow=diamondThin;endFill=1;endSize=11;" edge="1" parent="lg7ng6ACEGyM2Rm_as7d-39" source="lg7ng6ACEGyM2Rm_as7d-45" target="lg7ng6ACEGyM2Rm_as7d-42">
          <mxGeometry relative="1" as="geometry" />
        </mxCell>
        <mxCell id="lg7ng6ACEGyM2Rm_as7d-45" value="ServerConfig" style="swimlane;fontStyle=0;childLayout=stackLayout;horizontal=1;startSize=26;fillColor=none;horizontalStack=0;resizeParent=1;resizeParentMax=0;resizeLast=0;collapsible=1;marginBottom=0;html=1;fontSize=14;" vertex="1" parent="lg7ng6ACEGyM2Rm_as7d-39">
          <mxGeometry x="260" y="113" width="130" height="30" as="geometry" />
        </mxCell>
        <mxCell id="lg7ng6ACEGyM2Rm_as7d-40" value="&amp;lt;&amp;lt;Global&amp;gt;&amp;gt;&lt;br&gt;&amp;lt;&amp;lt;Singleton&amp;gt;&amp;gt;&lt;br&gt;Config" style="swimlane;fontStyle=0;childLayout=stackLayout;horizontal=1;startSize=50;fillColor=none;horizontalStack=0;resizeParent=1;resizeParentMax=0;resizeLast=0;collapsible=1;marginBottom=0;html=1;fontSize=14;" vertex="1" parent="lg7ng6ACEGyM2Rm_as7d-39">
          <mxGeometry x="30" y="37" width="170" height="102" as="geometry" />
        </mxCell>
        <mxCell id="lg7ng6ACEGyM2Rm_as7d-41" value="+DB: DbConfig" style="text;strokeColor=none;fillColor=none;align=left;verticalAlign=top;spacingLeft=4;spacingRight=4;overflow=hidden;rotatable=0;points=[[0,0.5],[1,0.5]];portConstraint=eastwest;whiteSpace=wrap;html=1;fontSize=15;" vertex="1" parent="lg7ng6ACEGyM2Rm_as7d-40">
          <mxGeometry y="50" width="170" height="26" as="geometry" />
        </mxCell>
        <mxCell id="lg7ng6ACEGyM2Rm_as7d-42" value="+Server: Serverconfig" style="text;strokeColor=none;fillColor=none;align=left;verticalAlign=top;spacingLeft=4;spacingRight=4;overflow=hidden;rotatable=0;points=[[0,0.5],[1,0.5]];portConstraint=eastwest;whiteSpace=wrap;html=1;fontSize=15;" vertex="1" parent="lg7ng6ACEGyM2Rm_as7d-40">
          <mxGeometry y="76" width="170" height="26" as="geometry" />
        </mxCell>
        <mxCell id="lg7ng6ACEGyM2Rm_as7d-54" style="edgeStyle=orthogonalEdgeStyle;rounded=0;orthogonalLoop=1;jettySize=auto;html=1;exitX=0;exitY=0.5;exitDx=0;exitDy=0;entryX=1;entryY=0.5;entryDx=0;entryDy=0;endArrow=diamondThin;endFill=1;endSize=12;" edge="1" parent="1" source="lg7ng6ACEGyM2Rm_as7d-28" target="lg7ng6ACEGyM2Rm_as7d-12">
          <mxGeometry relative="1" as="geometry" />
        </mxCell>
        <mxCell id="lg7ng6ACEGyM2Rm_as7d-56" value="Uses" style="edgeStyle=orthogonalEdgeStyle;rounded=0;orthogonalLoop=1;jettySize=auto;html=1;exitX=0.5;exitY=1;exitDx=0;exitDy=0;entryX=0;entryY=0.25;entryDx=0;entryDy=0;fontSize=17;" edge="1" parent="1" source="lg7ng6ACEGyM2Rm_as7d-7" target="lg7ng6ACEGyM2Rm_as7d-40">
          <mxGeometry relative="1" as="geometry" />
        </mxCell>
        <mxCell id="lg7ng6ACEGyM2Rm_as7d-58" value="Uses" style="edgeStyle=orthogonalEdgeStyle;rounded=0;orthogonalLoop=1;jettySize=auto;html=1;exitX=0.782;exitY=1.019;exitDx=0;exitDy=0;entryX=0.5;entryY=0;entryDx=0;entryDy=0;fontSize=17;exitPerimeter=0;" edge="1" parent="1" source="lg7ng6ACEGyM2Rm_as7d-29" target="lg7ng6ACEGyM2Rm_as7d-40">
          <mxGeometry relative="1" as="geometry">
            <Array as="points">
              <mxPoint x="830" y="640" />
              <mxPoint x="785" y="640" />
            </Array>
          </mxGeometry>
        </mxCell>
        <mxCell id="lg7ng6ACEGyM2Rm_as7d-67" style="edgeStyle=elbowEdgeStyle;rounded=0;orthogonalLoop=1;jettySize=auto;html=1;exitX=0;exitY=0.5;exitDx=0;exitDy=0;entryX=1;entryY=0.5;entryDx=0;entryDy=0;endArrow=diamondThin;endFill=1;endSize=12;" edge="1" parent="1" source="lg7ng6ACEGyM2Rm_as7d-33" target="lg7ng6ACEGyM2Rm_as7d-29">
          <mxGeometry relative="1" as="geometry" />
        </mxCell>
        <mxCell id="lg7ng6ACEGyM2Rm_as7d-33" value="Queries" style="swimlane;fontStyle=0;childLayout=stackLayout;horizontal=1;startSize=26;fillColor=none;horizontalStack=0;resizeParent=1;resizeParentMax=0;resizeLast=0;collapsible=1;marginBottom=0;html=1;fontSize=14;" vertex="1" parent="1">
          <mxGeometry x="902.0000000000005" y="539" width="130" height="29" as="geometry" />
        </mxCell>
        <mxCell id="lg7ng6ACEGyM2Rm_as7d-68" value="Module communication" style="swimlane;childLayout=stackLayout;resizeParent=1;resizeParentMax=0;startSize=20;html=1;fontSize=14;" vertex="1" parent="1">
          <mxGeometry x="840.0000000000005" y="350" width="170" height="50" as="geometry" />
        </mxCell>
        <mxCell id="lg7ng6ACEGyM2Rm_as7d-69" value="Type Definitions" style="swimlane;startSize=20;html=1;" vertex="1" parent="lg7ng6ACEGyM2Rm_as7d-68">
          <mxGeometry y="20" width="170" height="30" as="geometry" />
        </mxCell>
        <mxCell id="lg7ng6ACEGyM2Rm_as7d-73" value="Type Definitions" style="edgeStyle=orthogonalEdgeStyle;rounded=0;orthogonalLoop=1;jettySize=auto;html=1;exitX=0;exitY=0.25;exitDx=0;exitDy=0;entryX=0.75;entryY=0;entryDx=0;entryDy=0;dashed=1;startArrow=classic;startFill=1;endArrow=none;endFill=0;" edge="1" parent="1" source="lg7ng6ACEGyM2Rm_as7d-69" target="lg7ng6ACEGyM2Rm_as7d-6">
          <mxGeometry relative="1" as="geometry" />
        </mxCell>
        <mxCell id="lg7ng6ACEGyM2Rm_as7d-74" value="Type Definitions" style="edgeStyle=orthogonalEdgeStyle;rounded=0;orthogonalLoop=1;jettySize=auto;html=1;exitX=0.75;exitY=1;exitDx=0;exitDy=0;entryX=0.75;entryY=0;entryDx=0;entryDy=0;dashed=1;startArrow=classic;startFill=1;endArrow=none;endFill=0;" edge="1" parent="1" source="lg7ng6ACEGyM2Rm_as7d-69" target="lg7ng6ACEGyM2Rm_as7d-25">
          <mxGeometry relative="1" as="geometry" />
        </mxCell>
        <mxCell id="lg7ng6ACEGyM2Rm_as7d-77" value="Module util" style="swimlane;childLayout=stackLayout;resizeParent=1;resizeParentMax=0;startSize=20;html=1;fontSize=14;" vertex="1" parent="1">
          <mxGeometry x="689" y="402" width="130" height="50" as="geometry" />
        </mxCell>
        <mxCell id="lg7ng6ACEGyM2Rm_as7d-78" value="Pure Functions" style="swimlane;startSize=20;html=1;" vertex="1" parent="lg7ng6ACEGyM2Rm_as7d-77">
          <mxGeometry y="20" width="130" height="30" as="geometry" />
        </mxCell>
        <mxCell id="lg7ng6ACEGyM2Rm_as7d-83" value="Utility&lt;br&gt;Functions" style="edgeStyle=orthogonalEdgeStyle;rounded=0;orthogonalLoop=1;jettySize=auto;html=1;exitX=1;exitY=0.25;exitDx=0;exitDy=0;entryX=0;entryY=0.5;entryDx=0;entryDy=0;dashed=1;" edge="1" parent="1" source="lg7ng6ACEGyM2Rm_as7d-7" target="lg7ng6ACEGyM2Rm_as7d-77">
          <mxGeometry relative="1" as="geometry" />
        </mxCell>
      </root>
    </mxGraphModel>
  </diagram>
</mxfile>
